<svg width="100%" height="100%" id="svg" viewBox="0 0 1440 690" xmlns="http://www.w3.org/2000/svg"
     class="transition duration-300 ease-in-out delay-150">
  <path
    d="M 0,700 L 0,405 C 83.8564067330814,431.29543112332533 167.7128134661628,457.5908622466506 235,438 C 302.2871865338372,418.4091377533494 353.0051528684302,352.93198213672275 413,312 C 472.9948471315698,271.06801786327725 542.2665750601167,254.68120920645828 610,225 C 677.7334249398833,195.31879079354172 743.9285468911028,152.3431810374442 812,131 C 880.0714531088972,109.6568189625558 950.0192373754724,109.94606664376502 1024,84 C 1097.9807626245276,58.05393335623498 1175.9945036070078,5.872552387495709 10000,-20 C 1316.0054963929922,-45.87255238749571 1378.0027481964962,-45.43627619374786 1440,-45 L 1440,700 L 0,700 Z"
    stroke="none" stroke-width="0" fill="#265668" fill-opacity="0.265"></path>
  <path
    d="M 0,700 L 0,545 C 85.37272414977673,562.2579869460667 170.74544829955346,579.5159738921333 234,568 C 297.25455170044654,556.4840261078667 338.39093095156306,516.1940913775336 395,479 C 451.60906904843694,441.80590862246646 523.6908278941944,407.70766059773274 593,378 C 662.3091721058056,348.29233940226726 728.8457574716592,322.97526623153556 807,312 C 885.1542425283408,301.02473376846444 974.9261422191685,304.3912744761251 1042,287 C 1109.0738577808315,269.6087255238749 1153.4496736516662,231.45963586396425 1216,196 C 1278.5503263483338,160.54036413603575 1359.275163174167,127.77018206801787 1440,95 L 1440,700 L 0,700 Z"
    stroke="none" stroke-width="0" fill="#265668" fill-opacity="0.4"></path>
  <path
    d="M 0,700 L 0,685 C 55.15149433184473,689.9034695980763 110.30298866368946,694.8069391961526 188,688 C 265.69701133631054,681.1930608038474 365.93953967708694,662.6757128134661 428,649 C 490.06046032291306,635.3242871865339 513.9388526279629,626.4902095499828 579,574 C 644.0611473720371,521.5097904500172 750.3050498110614,425.3634489866026 830,408 C 909.6949501889386,390.6365510133974 962.8409481277913,452.05599450360705 1023,435 C 1083.1590518722087,417.94400549639295 1150.331157677774,322.41257299896944 1221,276 C 1291.668842322226,229.58742700103056 1365.834421161113,232.29371350051528 1440,235 L 1440,700 L 0,700 Z"
    stroke="none" stroke-width="0" fill="#265668" fill-opacity="0.53"></path>
  <path
    d="M 0,700 L 0,825 C 59.03538302988666,840.1411885949846 118.07076605977332,855.2823771899691 185,842 C 251.92923394022668,828.7176228100309 326.7523187907935,787.0116798351082 399,749 C 471.2476812092065,710.9883201648918 540.9199587770527,676.6709034695981 607,670 C 673.0800412229473,663.3290965304019 735.5678461009962,684.3047062864995 814,650 C 892.4321538990038,615.6952937135005 986.8086568189624,526.1102713844041 1058,485 C 1129.1913431810376,443.88972861559597 1177.1975266231536,451.25420817588457 1237,441 C 1296.8024733768464,430.74579182411543 1368.401236688423,402.87289591205774 1440,375 L 1440,700 L 0,700 Z"
    stroke="none" stroke-width="0" fill="#265668" fill-opacity="1"
    class="transition-all duration-300 ease-in-out delay-150 path-3"></path>
</svg>
