<svg xmlns="http://www.w3.org/2000/svg" xmlns:xlink="http://www.w3.org/1999/xlink" width="509.41" height="40" viewBox="0 0 509.41 40"><defs><style>.a,.f{fill:none;}.b{fill:#7f2754;}.c{clip-path:url(#a);}.d{fill:#64676b;}.e{fill:#662e6b;}.f{stroke:#b5bfc6;}</style><clipPath id="a"><rect class="a" width="185.71" height="40"/></clipPath></defs><path class="b" d="M349.89,14.29a3.43,3.43,0,0,1-1.52,1.08,6.32,6.32,0,0,1-2.2.37,4.34,4.34,0,0,1-2.23-.58,3.89,3.89,0,0,1-1.5-1.64,5.64,5.64,0,0,1-.55-2.48v-.79A5.31,5.31,0,0,1,343,6.69a3.73,3.73,0,0,1,3-1.28,4,4,0,0,1,2.66.83,3.57,3.57,0,0,1,1.18,2.39H348.2a1.92,1.92,0,0,0-2-1.82h-.11a2.09,2.09,0,0,0-1.78.84,4.4,4.4,0,0,0-.63,2.48v.77a4.05,4.05,0,0,0,.69,2.57,2.25,2.25,0,0,0,1.9.9,2.58,2.58,0,0,0,1.93-.67V11.77h-2.08V10.48H350Z"/><path class="b" d="M354.94,15.74a3.5,3.5,0,0,1-2.57-1,3.68,3.68,0,0,1-1-2.69v-.2a4.32,4.32,0,0,1,.43-2A3.22,3.22,0,0,1,354.76,8a2.88,2.88,0,0,1,2.36,1,4.11,4.11,0,0,1,.84,2.75v.7h-4.89a2.25,2.25,0,0,0,.62,1.47,1.91,1.91,0,0,0,1.36.53,2.28,2.28,0,0,0,1.88-.93l.9.86a3,3,0,0,1-1.2,1A3.67,3.67,0,0,1,354.94,15.74Zm-.21-6.43a1.46,1.46,0,0,0-1.12.48,2.52,2.52,0,0,0-.54,1.28h3.2V11a2.09,2.09,0,0,0-.45-1.29,1.43,1.43,0,0,0-1.09-.32Z"/><path class="b" d="M360.78,8.13V9A2.68,2.68,0,0,1,363,8c1.55,0,2.35.89,2.37,2.67V15.6h-1.68V10.75a1.51,1.51,0,0,0-.31-1,1.27,1.27,0,0,0-1-.34,1.57,1.57,0,0,0-1.5.91V15.6h-1.69V8.13Z"/><path class="b" d="M370.39,15.74a3.54,3.54,0,0,1-2.58-1,3.71,3.71,0,0,1-1-2.69v-.2a4.62,4.62,0,0,1,.43-2,3.2,3.2,0,0,1,3-1.86,2.92,2.92,0,0,1,2.35,1,4.11,4.11,0,0,1,.84,2.75v.7h-4.89a2.25,2.25,0,0,0,.62,1.47,1.89,1.89,0,0,0,1.36.53,2.28,2.28,0,0,0,1.88-.93l.91.86a3,3,0,0,1-1.21,1,3.67,3.67,0,0,1-1.71.37Zm-.21-6.43a1.43,1.43,0,0,0-1.12.48,2.521,2.521,0,0,0-.54,1.28h3.2V11a2.09,2.09,0,0,0-.45-1.29,1.43,1.43,0,0,0-1.09-.32Z"/><path class="b" d="M376.77,6.31V8.13h1.29V9.42h-1.29v4.17a1,1,0,0,0,.18.62.76.76,0,0,0,.61.19,2.3,2.3,0,0,0,.58-.07v1.28a3.83,3.83,0,0,1-1.11.17c-1.29,0-1.93-.72-1.93-2.14V9.4h-1.28V8.12h1.28V6.31Z"/><path class="b" d="M379.38,6.19a.85.85,0,0,1,.25-.64,1.07,1.07,0,0,1,1.4,0,.91.91,0,0,1,0,1.28,1,1,0,0,1-.7.26.92.92,0,0,1-.7-.26A.85.85,0,0,1,379.38,6.19Zm1.79,9.41h-1.69V8.13h1.69Z"/><path class="b" d="M386.05,14.39a1.47,1.47,0,0,0,1-.36,1.27,1.27,0,0,0,.45-.9h1.58a2.61,2.61,0,0,1-.43,1.29,2.92,2.92,0,0,1-1.11.95,3.38,3.38,0,0,1-1.5.36,3.18,3.18,0,0,1-2.48-1,4,4,0,0,1-.93-2.8v-.18A4,4,0,0,1,383.58,9a3.14,3.14,0,0,1,2.48-1,3.06,3.06,0,0,1,2.18.77,2.81,2.81,0,0,1,.88,2h-1.58a1.57,1.57,0,0,0-.43-1,1.5,1.5,0,0,0-1.06-.41,1.4,1.4,0,0,0-1.28.59,2.88,2.88,0,0,0-.45,1.78V12a3.06,3.06,0,0,0,.43,1.82,1.47,1.47,0,0,0,1.3.57Z"/><path class="b" d="M398.33,15.6a2.439,2.439,0,0,1-.2-.7,2.82,2.82,0,0,1-3.85.2,2.08,2.08,0,0,1-.71-1.6,2.09,2.09,0,0,1,.89-1.82A4.14,4.14,0,0,1,397,11h1v-.49a1.29,1.29,0,0,0-.33-.94,1.27,1.27,0,0,0-1-.35,1.45,1.45,0,0,0-.94.3.84.84,0,0,0-.36.72h-1.62a1.86,1.86,0,0,1,.41-1.15,2.58,2.58,0,0,1,1.1-.83A3.86,3.86,0,0,1,396.91,8a3.07,3.07,0,0,1,2.08.66,2.32,2.32,0,0,1,.81,1.86v3.37a3.82,3.82,0,0,0,.29,1.6v.12Zm-1.85-1.21a1.9,1.9,0,0,0,.93-.24,1.53,1.53,0,0,0,.66-.65V12.09h-.9a2.44,2.44,0,0,0-1.4.32,1.08,1.08,0,0,0-.48.93,1,1,0,0,0,.32.77,1.28,1.28,0,0,0,.92.28Z"/><path class="b" d="M403.12,8.13V9a2.72,2.72,0,0,1,2.17-1c1.57,0,2.35.89,2.38,2.67V15.6H406V10.75a1.51,1.51,0,0,0-.31-1,1.28,1.28,0,0,0-1-.34,1.61,1.61,0,0,0-1.52.91V15.6H401.5V8.13Z"/><path class="b" d="M409.11,11.81a4.51,4.51,0,0,1,.8-2.78,2.54,2.54,0,0,1,2.14-1,2.42,2.42,0,0,1,1.92.82V5h1.68V15.6h-1.52l-.09-.77a2.45,2.45,0,0,1-2,.91,2.57,2.57,0,0,1-2.12-1.07,4.5,4.5,0,0,1-.81-2.86Zm1.67.14a3.19,3.19,0,0,0,.4,1.76,1.44,1.44,0,0,0,1.28.63,1.59,1.59,0,0,0,1.51-.91V10.26a1.55,1.55,0,0,0-1.49-.89,1.41,1.41,0,0,0-1.29.64,3.45,3.45,0,0,0-.41,1.99Z"/><path class="b" d="M424.78,11.73h-1.94v3.86h-1.75v-10h3.53a4.11,4.11,0,0,1,2.69.78,2.76,2.76,0,0,1,.94,2.25,2.86,2.86,0,0,1-.49,1.7,3,3,0,0,1-1.29,1l2.25,4.19v.09h-1.86Zm-1.94-1.4h1.78A2,2,0,0,0,426,9.88a1.6,1.6,0,0,0,.49-1.22,1.71,1.71,0,0,0-.45-1.29,2,2,0,0,0-1.38-.46h-1.83Z"/><path class="b" d="M434.21,15.6a2.139,2.139,0,0,1-.19-.7,2.83,2.83,0,0,1-3.86.2,2.08,2.08,0,0,1-.71-1.6,2.12,2.12,0,0,1,.89-1.82,4.18,4.18,0,0,1,2.57-.64h1v-.49a1.29,1.29,0,0,0-.32-.94,1.31,1.31,0,0,0-1-.35,1.51,1.51,0,0,0-.94.3.84.84,0,0,0-.36.72h-1.68a1.86,1.86,0,0,1,.41-1.15,2.58,2.58,0,0,1,1.1-.83,3.86,3.86,0,0,1,1.61-.3,3.12,3.12,0,0,1,2.1.66,2.35,2.35,0,0,1,.79,1.86v3.37a3.82,3.82,0,0,0,.29,1.6v.12Zm-1.85-1.21a1.93,1.93,0,0,0,.94-.24,1.46,1.46,0,0,0,.65-.65V12.09H433a2.44,2.44,0,0,0-1.4.32,1.09,1.09,0,0,0-.48.93,1,1,0,0,0,.32.77,1.3,1.3,0,0,0,.92.28Z"/><path class="b" d="M441.3,9.66a3.86,3.86,0,0,0-.68,0,1.56,1.56,0,0,0-1.55.87v5.15h-1.69V8.13H439V9a1.89,1.89,0,0,1,1.68-1,1.52,1.52,0,0,1,.6.1Z"/><path class="b" d="M445.52,15.74a3.46,3.46,0,0,1-2.57-1,3.68,3.68,0,0,1-1-2.69v-.2a4.61,4.61,0,0,1,.42-2,3.34,3.34,0,0,1,1.29-1.37A3.13,3.13,0,0,1,445.4,8a2.94,2.94,0,0,1,2.36,1,4,4,0,0,1,.83,2.75v.7h-4.88a2.29,2.29,0,0,0,.61,1.47,2,2,0,0,0,1.38.53,2.33,2.33,0,0,0,1.88-.93l.9.86a3,3,0,0,1-1.2,1,3.8,3.8,0,0,1-1.76.36Zm-.21-6.43a1.41,1.41,0,0,0-1.1.48,2.44,2.44,0,0,0-.54,1.28h3.19V11a2.09,2.09,0,0,0-.45-1.29,1.42,1.42,0,0,0-1.1-.32Z"/><path class="b" d="M453.5,15.6V5.6h3a4.63,4.63,0,0,1,2.36.59,4.11,4.11,0,0,1,1.6,1.68,5.331,5.331,0,0,1,.56,2.51v.5a5.33,5.33,0,0,1-.56,2.57,4.13,4.13,0,0,1-1.62,1.67,4.74,4.74,0,0,1-2.42.59ZM455.25,7v7.2h1.13a2.6,2.6,0,0,0,2.11-.85,3.78,3.78,0,0,0,.76-2.47v-.56a3.92,3.92,0,0,0-.72-2.5A2.5,2.5,0,0,0,456.47,7Z"/><path class="b" d="M462.59,6.19a.88.88,0,0,1,.24-.64,1.1,1.1,0,0,1,1.42,0,1,1,0,0,1,0,1.28,1,1,0,0,1-.71.26.94.94,0,0,1-.71-.26.88.88,0,0,1-.24-.64Zm1.78,9.41h-1.68V8.13h1.68Z"/><path class="b" d="M470.38,13.57a.78.78,0,0,0-.38-.68,3.521,3.521,0,0,0-1.22-.41,7.349,7.349,0,0,1-1.44-.47,1.87,1.87,0,0,1-1.28-1.76,2,2,0,0,1,.81-1.62A3.25,3.25,0,0,1,468.94,8a3.32,3.32,0,0,1,2.17.67,2.11,2.11,0,0,1,.82,1.71H470.3a1,1,0,0,0-.36-.8,1.27,1.27,0,0,0-.95-.32,1.38,1.38,0,0,0-.9.26.78.78,0,0,0-.35.68.65.65,0,0,0,.32.59,4.19,4.19,0,0,0,1.29.44,6,6,0,0,1,1.55.51,2.2,2.2,0,0,1,.84.73,1.84,1.84,0,0,1,.27,1,2,2,0,0,1-.84,1.63,3.61,3.61,0,0,1-2.18.63,4.05,4.05,0,0,1-1.65-.33,2.78,2.78,0,0,1-1.12-.92,2.15,2.15,0,0,1-.39-1.28h1.63a1.17,1.17,0,0,0,.45.91,2,2,0,0,0,2.11.06.79.79,0,0,0,.36-.6Z"/><path class="b" d="M476.72,15.74a3.54,3.54,0,0,1-2.57-1,3.76,3.76,0,0,1-1-2.69v-.2a4.46,4.46,0,0,1,.44-2,3.34,3.34,0,0,1,1.21-1.37A3.3,3.3,0,0,1,476.54,8a2.9,2.9,0,0,1,2.37,1,4,4,0,0,1,.83,2.75v.7h-4.88a2.25,2.25,0,0,0,.62,1.47,1.89,1.89,0,0,0,1.36.53,2.28,2.28,0,0,0,1.88-.93l.9.86a3,3,0,0,1-1.2,1,3.68,3.68,0,0,1-1.7.36Zm-.2-6.43a1.43,1.43,0,0,0-1.08.54,2.47,2.47,0,0,0-.54,1.29h3.2V11a2.09,2.09,0,0,0-.45-1.29,1.43,1.43,0,0,0-1.08-.38Z"/><path class="b" d="M485.53,15.6a2.14,2.14,0,0,1-.19-.7,2.57,2.57,0,0,1-2,.84,2.64,2.64,0,0,1-1.84-.64,2.23,2.23,0,0,1-.13-3.14,1.579,1.579,0,0,1,.3-.28,4.18,4.18,0,0,1,2.57-.64h1v-.49a1.4,1.4,0,0,0-.32-.94,1.31,1.31,0,0,0-1-.35,1.45,1.45,0,0,0-.94.3.88.88,0,0,0-.37.72H481a1.85,1.85,0,0,1,.4-1.15,2.61,2.61,0,0,1,1.11-.83,3.78,3.78,0,0,1,1.58-.3,3.1,3.1,0,0,1,2.09.66,2.36,2.36,0,0,1,.8,1.86v3.37a4,4,0,0,0,.28,1.6v.12Zm-1.84-1.21a1.87,1.87,0,0,0,.93-.24,1.59,1.59,0,0,0,.66-.65V12.09h-.84a2.52,2.52,0,0,0-1.4.32,1.08,1.08,0,0,0-.47.93,1,1,0,0,0,.32.77,1.3,1.3,0,0,0,.8.28Z"/><path class="b" d="M492.91,13.57a.78.78,0,0,0-.38-.68,3.52,3.52,0,0,0-1.22-.41,7.351,7.351,0,0,1-1.44-.47,1.87,1.87,0,0,1-1.28-1.76,2,2,0,0,1,.81-1.62A3.25,3.25,0,0,1,491.47,8a3.32,3.32,0,0,1,2.17.67,2.11,2.11,0,0,1,.82,1.71h-1.68a1,1,0,0,0-.36-.8,1.28,1.28,0,0,0-.95-.32,1.38,1.38,0,0,0-.9.26.78.78,0,0,0-.35.68.65.65,0,0,0,.32.59,4.19,4.19,0,0,0,1.29.44,6.13,6.13,0,0,1,1.55.51,2.27,2.27,0,0,1,.84.73,1.93,1.93,0,0,1,.27,1,2,2,0,0,1-.84,1.63,3.61,3.61,0,0,1-2.18.63,4,4,0,0,1-1.64-.33,2.56,2.56,0,0,1-1.11-.92,2.11,2.11,0,0,1-.42-1.28h1.64a1.2,1.2,0,0,0,.45.91,2,2,0,0,0,2.1.06.77.77,0,0,0,.42-.6Z"/><path class="b" d="M499.31,15.74a3.46,3.46,0,0,1-2.57-1,3.67,3.67,0,0,1-1-2.69v-.2a4.49,4.49,0,0,1,.44-2,3.2,3.2,0,0,1,3-1.86,2.92,2.92,0,0,1,2.35,1,4.1,4.1,0,0,1,.83,2.75v.7h-4.88a2.25,2.25,0,0,0,.62,1.47,1.89,1.89,0,0,0,1.36.53,2.28,2.28,0,0,0,1.88-.93l.91.86a3,3,0,0,1-1.21,1,3.63,3.63,0,0,1-1.73.37Zm-.21-6.43a1.45,1.45,0,0,0-1.12.48,2.52,2.52,0,0,0-.54,1.28h3.2V11a2.09,2.09,0,0,0-.45-1.29,1.43,1.43,0,0,0-1.09-.32Z"/><path class="b" d="M507.79,13.57a.77.77,0,0,0-.37-.68,3.65,3.65,0,0,0-1.23-.41,7.259,7.259,0,0,1-1.43-.47,1.88,1.88,0,0,1-1.29-1.76,2,2,0,0,1,.81-1.62A3.28,3.28,0,0,1,506.35,8a3.32,3.32,0,0,1,2.17.67,2.11,2.11,0,0,1,.82,1.71H507.7a1,1,0,0,0-.36-.8,1.27,1.27,0,0,0-.95-.32,1.38,1.38,0,0,0-.9.26.78.78,0,0,0-.35.68.65.65,0,0,0,.32.59,4.19,4.19,0,0,0,1.29.44,6,6,0,0,1,1.55.51,2.2,2.2,0,0,1,.84.73,1.84,1.84,0,0,1,.27,1,2,2,0,0,1-.84,1.63,3.59,3.59,0,0,1-2.18.63,4,4,0,0,1-1.63-.33,2.58,2.58,0,0,1-1.12-.92,2.1,2.1,0,0,1-.41-1.28h1.63a1.2,1.2,0,0,0,.45.91,2,2,0,0,0,2.11.06.8.8,0,0,0,.37-.6Z"/><path class="b" d="M344,32.31h-1.74v-10H344Z"/><path class="b" d="M347.56,24.84v.86a2.72,2.72,0,0,1,2.17-1c1.56,0,2.35.88,2.38,2.67v4.94h-1.67V27.46a1.51,1.51,0,0,0-.31-1,1.31,1.31,0,0,0-1-.35,1.64,1.64,0,0,0-1.52.92v5.32h-1.68V24.84Z"/><path class="b" d="M354.46,32.31V26.07h-1.12V24.79h1.15v-.68a2.55,2.55,0,0,1,.69-1.93,2.67,2.67,0,0,1,1.93-.67,3.79,3.79,0,0,1,.94.12v1.28a3.53,3.53,0,0,0-.65,0,1.07,1.07,0,0,0-1.2.93,1.09,1.09,0,0,0,0,.36v.66h1.52v1.29H356.2v6.23Z"/><path class="b" d="M358.57,28.5a4.5,4.5,0,0,1,.43-1.94,3.16,3.16,0,0,1,1.28-1.28,3.42,3.42,0,0,1,1.82-.48,3.22,3.22,0,0,1,2.45,1,3.87,3.87,0,0,1,1,2.57v.38a4.5,4.5,0,0,1-.43,2,3.19,3.19,0,0,1-1.22,1.35,3.52,3.52,0,0,1-1.82.48,3.31,3.31,0,0,1-2.58-1.06,4,4,0,0,1-.93-2.81Zm1.67.14a3.08,3.08,0,0,0,.48,1.82,1.67,1.67,0,0,0,2.34.3,1.77,1.77,0,0,0,.31-.3,3.33,3.33,0,0,0,.47-1.95,3,3,0,0,0-.49-1.79,1.64,1.64,0,0,0-2.31-.26,1.6,1.6,0,0,0-.26.26,3.35,3.35,0,0,0-.54,1.92Z"/><path class="b" d="M370.85,26.37a4.09,4.09,0,0,0-.7,0,1.53,1.53,0,0,0-1.54.87v5.14h-1.68V24.84h1.6v.83a1.88,1.88,0,0,1,1.69-1,1.5,1.5,0,0,1,.59.1Z"/><path class="b" d="M373.48,24.84v.77a2.73,2.73,0,0,1,2.16-.91,2.08,2.08,0,0,1,2.06,1.14A2.63,2.63,0,0,1,380,24.7a2.28,2.28,0,0,1,1.83.68,3.05,3.05,0,0,1,.62,2v4.91h-1.67V27.45a1.44,1.44,0,0,0-.32-1,1.65,1.65,0,0,0-2,0,1.67,1.67,0,0,0-.51.79v5.14h-1.63v-5a1.2,1.2,0,0,0-1.1-1.28.6.6,0,0,0-.19,0,1.44,1.44,0,0,0-1.42.82v5.41H372V24.84Z"/><path class="b" d="M388.66,32.31a3.462,3.462,0,0,1-.19-.7,2.59,2.59,0,0,1-2,.84,2.71,2.71,0,0,1-1.83-.64,2.24,2.24,0,0,1,.18-3.42,4.15,4.15,0,0,1,2.57-.65h1v-.48A1.18,1.18,0,0,0,387.14,26a1.44,1.44,0,0,0-.93.3.86.86,0,0,0-.38.72h-1.64a1.86,1.86,0,0,1,.41-1.15,2.581,2.581,0,0,1,1.1-.83,3.86,3.86,0,0,1,1.57-.31,3.16,3.16,0,0,1,2.09.65,2.38,2.38,0,0,1,.8,1.87v3.36a3.87,3.87,0,0,0,.29,1.61v.12Zm-1.84-1.21a1.81,1.81,0,0,0,.94-.25,1.51,1.51,0,0,0,.66-.64V28.8h-.9a2.36,2.36,0,0,0-1.4.32,1.06,1.06,0,0,0-.48.92,1,1,0,0,0,.32.78,1.35,1.35,0,0,0,.86.28Z"/><path class="b" d="M394,23v1.83h1.28v1.28H394V30.3a.91.91,0,0,0,.16.62.76.76,0,0,0,.61.19,2.33,2.33,0,0,0,.59-.08v1.29a4.15,4.15,0,0,1-1.11.17c-1.28,0-1.94-.72-1.94-2.14V26.11H391V24.83h1.28V23Z"/><path class="b" d="M396.55,22.9a.93.93,0,0,1,.25-.64,1.1,1.1,0,0,1,1.41,0,.84.84,0,0,1,.24.64.87.87,0,0,1-.24.63,1.1,1.1,0,0,1-1.41,0,.93.93,0,0,1-.25-.63Zm1.78,9.41h-1.67V24.84h1.67Z"/><path class="b" d="M399.84,28.5a4.69,4.69,0,0,1,.44-2,3.16,3.16,0,0,1,1.28-1.28,3.42,3.42,0,0,1,1.82-.48,3.22,3.22,0,0,1,2.45,1,3.84,3.84,0,0,1,1,2.57v.38a4.47,4.47,0,0,1-.43,2A3.12,3.12,0,0,1,405.2,32a3.52,3.52,0,0,1-1.82.48,3.32,3.32,0,0,1-2.57-1.05,4.08,4.08,0,0,1-.95-2.82Zm1.69.14a3,3,0,0,0,.47,1.82,1.67,1.67,0,0,0,2.34.3,1.77,1.77,0,0,0,.31-.3,3.26,3.26,0,0,0,.47-1.95,3,3,0,0,0-.48-1.79,1.58,1.58,0,0,0-1.29-.66,1.53,1.53,0,0,0-1.28.64,3.28,3.28,0,0,0-.54,1.94Z"/><path class="b" d="M409.76,24.84v.86a2.66,2.66,0,0,1,2.18-1c1.55,0,2.35.88,2.37,2.67v4.94h-1.67V27.46a1.51,1.51,0,0,0-.31-1,1.3,1.3,0,0,0-1-.35,1.6,1.6,0,0,0-1.5.92v5.32h-1.69V24.84Z"/><path class="b" d="M427.42,29a3.61,3.61,0,0,1-1.18,2.57,4.14,4.14,0,0,1-2.75.9,3.79,3.79,0,0,1-2.12-.58A3.58,3.58,0,0,1,420,30.3a5.65,5.65,0,0,1-.52-2.43v-.94a6,6,0,0,1,.5-2.5,3.79,3.79,0,0,1,1.52-1.72,4.34,4.34,0,0,1,4.85.3,3.77,3.77,0,0,1,1.18,2.57h-1.74a2.58,2.58,0,0,0-.69-1.59,2.12,2.12,0,0,0-1.49-.47,2,2,0,0,0-1.75.82,4.12,4.12,0,0,0-.63,2.44v.9a4.31,4.31,0,0,0,.59,2.48,1.92,1.92,0,0,0,1.71.86,2.25,2.25,0,0,0,1.54-.46,2.42,2.42,0,0,0,.66-1.54Z"/><path class="b" d="M432.11,32.45a3.52,3.52,0,0,1-2.57-1,3.68,3.68,0,0,1-1-2.69v-.21a4.57,4.57,0,0,1,.43-2,3.32,3.32,0,0,1,1.28-1.37A3.16,3.16,0,0,1,432,24.7a2.88,2.88,0,0,1,2.35,1,4.14,4.14,0,0,1,.84,2.75v.71H430.3a2.25,2.25,0,0,0,.62,1.47,1.88,1.88,0,0,0,1.36.52,2.29,2.29,0,0,0,1.89-.92l.9.86a3,3,0,0,1-1.19,1A4,4,0,0,1,432.11,32.45Zm-.2-6.43a1.43,1.43,0,0,0-1.11.48,2.53,2.53,0,0,0-.55,1.35h3.2v-.13a2.09,2.09,0,0,0-.45-1.29,1.38,1.38,0,0,0-1.09-.38Z"/><path class="b" d="M438,24.84v.86a2.72,2.72,0,0,1,2.17-1c1.56,0,2.36.88,2.38,2.67v4.94h-1.67V27.46a1.51,1.51,0,0,0-.31-1,1.31,1.31,0,0,0-1-.35A1.65,1.65,0,0,0,438,27v5.32h-1.68V24.84Z"/><path class="b" d="M446.38,23v1.83h1.29v1.28h-1.29V30.3a.92.92,0,0,0,.17.62.73.73,0,0,0,.6.19,2.25,2.25,0,0,0,.58-.08v1.29a3.78,3.78,0,0,1-1.11.17c-1.28,0-1.92-.72-1.92-2.14V26.11h-1.29V24.83h1.29V23Z"/><path class="b" d="M452.31,32.45a3.54,3.54,0,0,1-2.58-1,3.67,3.67,0,0,1-1-2.69v-.21a4.43,4.43,0,0,1,.42-2,3.2,3.2,0,0,1,3-1.86,2.88,2.88,0,0,1,2.35,1,4.13,4.13,0,0,1,.83,2.75v.71h-4.88a2.25,2.25,0,0,0,.62,1.47,1.85,1.85,0,0,0,1.36.52,2.22,2.22,0,0,0,1.87-.92l.92.86a3.17,3.17,0,0,1-1.2,1,3.94,3.94,0,0,1-1.71.37ZM452.1,26a1.4,1.4,0,0,0-1.12.48,2.44,2.44,0,0,0-.54,1.35h3.15V27.7a2.09,2.09,0,0,0-.45-1.29,1.43,1.43,0,0,0-1.08-.38Z"/><path class="b" d="M460.47,26.37a3.86,3.86,0,0,0-.68,0,1.54,1.54,0,0,0-1.56.87v5.14h-1.67V24.84h1.59v.83a1.88,1.88,0,0,1,1.69-1,1.5,1.5,0,0,1,.59.1Z"/><path class="b" d="M242.43,31.52a10.29,10.29,0,0,1-4.68,3.33A18.89,18.89,0,0,1,231,36a13.28,13.28,0,0,1-6.91-1.71,11.72,11.72,0,0,1-4.64-5.14,18,18,0,0,1-1.7-7.71V19q0-7,3.38-11a11.63,11.63,0,0,1,9.41-4,12.36,12.36,0,0,1,8.24,2.57A11,11,0,0,1,242.4,14h-5.29c-.59-3.73-2.76-5.61-6.51-5.61A6.4,6.4,0,0,0,225.09,11a13.17,13.17,0,0,0-2,7.71V21.1a12.57,12.57,0,0,0,2.12,7.8,7,7,0,0,0,5.9,2.85c2.76,0,4.73-.62,5.88-1.87V23.72h-6.42v-4.1H242.4Z"/><path class="b" d="M265.74,28.32h-12l-2.57,7.24h-5.61L257.27,4.49h4.83l11.82,31.07h-5.63ZM255.23,24h9l-4.5-12.85Z"/><path class="b" d="M288.85,23.61h-6v12h-5.4V4.49h10.92a12.68,12.68,0,0,1,8.3,2.42,8.53,8.53,0,0,1,2.92,7,8.75,8.75,0,0,1-1.5,5.22,9.69,9.69,0,0,1-4.19,3.24l7,12.93v.28h-5.79Zm-6-4.35h5.55a6.2,6.2,0,0,0,4.26-1.37,4.87,4.87,0,0,0,1.57-3.77,5.12,5.12,0,0,0-1.41-3.86,6.05,6.05,0,0,0-4.24-1.4h-5.7Z"/><path class="b" d="M304.71,35.56V4.49h9.18a14.31,14.31,0,0,1,7.32,1.84,12.38,12.38,0,0,1,5,5.21,16.751,16.751,0,0,1,1.75,7.71V20.8a16.459,16.459,0,0,1-1.76,7.71,12.55,12.55,0,0,1-5,5.15,15.26,15.26,0,0,1-7.5,1.9Zm5.4-26.71v22.4h3.52a8.08,8.08,0,0,0,6.52-2.66A11.55,11.55,0,0,0,322.46,21V19.24a11.89,11.89,0,0,0-2.2-7.72,7.8,7.8,0,0,0-6.42-2.66Z"/><g class="c"><path class="d" d="M57.75,20,46.25,0H3.81A3.76,3.76,0,0,0,0,3.71V36.29A3.76,3.76,0,0,0,3.81,40H46.2ZM21.54,29H18.1L9.62,15.83H9.56V29H6.45V11.14H9.89l8.48,13.14h.06V11.14h3.11ZM28,11.14V29H24.76V11.14Zm18.27,0V29H43V21H34.54v8H31.26V11.14h3.28V18.2H43V11.14Z"/><path class="d" d="M49.1,40,60.65,20,49.15,0H52a5.5,5.5,0,0,1,4.3,2.42L66.4,20,56.25,37.58A5.39,5.39,0,0,1,52,40Z"/><path class="e" d="M49.1,40,60.65,20,49.15,0H52a5.5,5.5,0,0,1,4.3,2.42L66.4,20,56.25,37.58A5.39,5.39,0,0,1,52,40Z"/><path class="d" d="M71.07,31.65h2.64V38.4h1.45V31.65h2.63V30.46H71.07Zm6.18,6.75h1.34V35.67c0-1.29.7-2,1.62-2a2.39,2.39,0,0,1,.59,0V32.52h-.54a1.88,1.88,0,0,0-1.72,1.24h-.05V32.63H77.25Zm7.57-2c0,.83-.91,1.14-1.44,1.14s-1.24-.21-1.24-.78.48-.82,1.07-.92a4.78,4.78,0,0,0,1.62-.37Zm1.35-2.27c0-1.23-1.24-1.65-2.42-1.65s-2.63.42-2.74,1.91h1.34c.06-.67.6-.93,1.35-.93.48,0,1.23.1,1.23.78s-.86.61-1.82.82-2.31.36-2.31,1.75a1.8,1.8,0,0,0,2,1.7,3,3,0,0,0,2.09-.72.89.89,0,0,0,1,.72,5,5,0,0,0,.86-.15v-.88a.92.92,0,0,1-.37,0c-.22,0-.27-.15-.27-.46Zm1.18,4.23h1.34V35A1.41,1.41,0,0,1,90,33.51h.13c.76,0,1.13.36,1.19,1.28V38.4H92.6v-4c0-1.29-.8-1.9-2.09-1.9a2.12,2.12,0,0,0-1.88,1v-.88H87.35Zm6.12-1.86c.06,1.35,1.13,2,2.64,2,1.23,0,2.68-.52,2.68-1.86,0-1.13-1-1.5-1.93-1.7s-1.94-.31-1.94-.93c0-.46.7-.56,1.08-.56.59,0,1.13.15,1.23.77h1.4c-.16-1.29-1.28-1.75-2.52-1.75-1.07,0-2.53.36-2.53,1.6s1,1.49,1.94,1.7,1.93.3,2,1-.86.78-1.35.78c-.7,0-1.28-.31-1.34-1Zm6.18-6.08V38.4h1.29V30.46Zm6.23,6c0,.83-.91,1.14-1.5,1.14-.43,0-1.18-.21-1.18-.78s.48-.82,1.07-.92a5,5,0,0,0,1.62-.37Zm1.29-2.27c0-1.23-1.18-1.65-2.36-1.65-1.34,0-2.63.42-2.74,1.91h1.34c.06-.67.59-.93,1.29-.93.54,0,1.24.1,1.24.78s-.81.61-1.77.82c-1.13.1-2.32.36-2.32,1.75,0,1.14,1,1.7,2.05,1.7a3.11,3.11,0,0,0,2.1-.72.89.89,0,0,0,1,.72,3.64,3.64,0,0,0,.8-.15V37.5a.7.7,0,0,1-.32,0c-.21,0-.32-.15-.32-.46Zm.65-.56h1V37c.06.92.33,1.44,1.67,1.44.32,0,.59-.05.86-.05v-1a1.94,1.94,0,0,1-.54,0c-.59,0-.64-.31-.64-.82v-3h1.18v-1h-1.19V30.93h-1.34v1.69h-1Zm4.3-1V38.4h1.29V32.63Zm0-2.17v1.19h1.29V30.46Zm5.26,7.12a1.86,1.86,0,0,1-1.73-2,.38.38,0,0,0,0-.1A1.74,1.74,0,0,1,119.1,35a1.63,1.63,0,0,1,0,.54,1.86,1.86,0,0,1-1.63,2.06h-.09m0,1a2.85,2.85,0,0,0,3-3.05,3,3,0,1,0-6,0h0a2.83,2.83,0,0,0,2.6,3h.41m3.92-.16h1.29V35a1.44,1.44,0,0,1,1.4-1.49h0c.81,0,1.18.36,1.18,1.28V38.4h1.35v-4c0-1.29-.86-1.9-2.15-1.9a2.1,2.1,0,0,0-1.83,1h0v-.88H121.3Zm10.1-2c0,.83-.86,1.14-1.45,1.14s-1.23-.21-1.23-.78.54-.82,1.07-.92a4.67,4.67,0,0,0,1.61-.37Zm1.35-2.27c0-1.23-1.24-1.65-2.42-1.65s-2.63.42-2.69,1.91h1.29c.06-.67.59-.93,1.35-.93.53,0,1.23.1,1.23.78s-.86.61-1.77.82c-1.13.1-2.31.36-2.31,1.75a1.8,1.8,0,0,0,2,1.7,2.88,2.88,0,0,0,2-.72.89.89,0,0,0,1,.72,5,5,0,0,0,.86-.15v-.88a.86.86,0,0,1-.32,0c-.27,0-.32-.15-.32-.46ZM134,30.46V38.4h1.35V30.46Zm5.27,5.31c.05,2,1.56,2.84,3.44,2.84,1.66,0,3.27-.72,3.27-2.53a2.06,2.06,0,0,0-1.61-2c-.43-.1-2.26-.56-2.36-.62-.59-.15-1-.46-1-1,0-.77.8-1,1.5-1,1,0,1.72.42,1.77,1.39h1.45c0-1.65-1.45-2.52-3.17-2.52-1.5,0-3,.77-3,2.37,0,.83.38,1.65,1.83,2a25.421,25.421,0,0,1,2.47.62,1,1,0,0,1,.65,1c0,.62-.43,1.24-1.72,1.24s-2.1-.52-2.1-1.7h-1.44Zm12.94-1.18c-.1-1.45-1.28-2.07-2.68-2.07a3,3,0,1,0-.06,6,2.51,2.51,0,0,0,2.74-2.27V36.2h-1.28a1.48,1.48,0,0,1-1.46,1.34c-1.12,0-1.55-1-1.55-2,0-1.7,1-2.06,1.61-2.06a1.26,1.26,0,0,1,1.4,1.08Zm.92-2V38.4h1.34V32.63Zm0-2.17v1.19h1.34V30.46Zm8,5.42a2.9,2.9,0,0,0-5.72-.92,2.539,2.539,0,0,0,0,.55,2.79,2.79,0,0,0,2.52,3,3.09,3.09,0,0,0,.43,0,2.61,2.61,0,0,0,2.69-2h-1.24a1.46,1.46,0,0,1-1.45,1,1.55,1.55,0,0,1-1.61-1.49,1.47,1.47,0,0,1,0-.21Zm-4.4-.88a1.5,1.5,0,0,1,1.5-1.5h.06a1.52,1.52,0,0,1,1.5,1.5Zm5.15,3.4h1.35V35a1.43,1.43,0,0,1,1.37-1.49h.08c.75,0,1.13.36,1.18,1.29v3.6h1.29v-4c0-1.29-.81-1.91-2.1-1.91a2.18,2.18,0,0,0-1.88,1v-.87h-1.29Zm11.82-3.82c-.1-1.44-1.29-2.06-2.68-2.06a3,3,0,0,0-.06,6,2.54,2.54,0,0,0,2.74-2.32h-1.34a1.39,1.39,0,0,1-1.4,1.34c-1.13,0-1.61-1-1.61-2,0-1.7,1-2.06,1.66-2.06a1.2,1.2,0,0,1,1.34,1.06h0Zm6.3,1.33a2.874,2.874,0,1,0-5.66-1,4.17,4.17,0,0,0,0,.61,2.75,2.75,0,0,0,2.44,3,2.36,2.36,0,0,0,.46,0,2.65,2.65,0,0,0,2.74-2h-1.29a1.35,1.35,0,0,1-1.44,1A1.58,1.58,0,0,1,175.56,36v-.16ZM175.56,35a1.58,1.58,0,0,1,1.62-1.5,1.56,1.56,0,0,1,1.5,1.5Zm4.89,1.54c.06,1.34,1.13,2,2.63,2,1.24,0,2.69-.51,2.69-1.85,0-1.14-1-1.5-1.93-1.7s-1.94-.31-1.94-.93c0-.46.7-.57,1.08-.57.59,0,1.12.16,1.23.78h1.35c-.17-1.29-1.24-1.76-2.48-1.76-1.07,0-2.52.37-2.52,1.6s1,1.5,1.93,1.7,1.94.31,2,1-.86.78-1.34.78c-.7,0-1.29-.31-1.34-1Z"/></g><path class="d" d="M71.07,19.43h1v5h1.29v-5h1.13v-1H73.38v-.64a.6.6,0,0,1,.53-.65H74a2.86,2.86,0,0,1,.64.11v-1a4.51,4.51,0,0,0-1-.11c-.86,0-1.61.27-1.61,1.78v.53h-1Zm6.77,4.14c-1.18,0-1.67-1.08-1.67-2.15s.49-2.1,1.67-2.1,1.72,1.07,1.72,2.1-.54,2.15-1.72,2.15m0,1a2.93,2.93,0,0,0,3.07-2.79,2.411,2.411,0,0,0,0-.38,3.036,3.036,0,1,0-6.07-.19v.19a2.92,2.92,0,0,0,2.66,3.16h.35m3.92-.16h1.35V21.58c0-1.34.7-2,1.61-2a2,2,0,0,1,.54.05V18.3h-.49a1.82,1.82,0,0,0-1.72,1.29h0V18.46h-1.3Zm10-6.82h0L93,21.15H90.52ZM87.85,24.4h1.5l.75-2.2h3.28l.81,2.2h1.56l-3.23-8.27h-1.5Zm9.29-3c0-1.07.43-2.14,1.67-2.14,1,0,1.66.8,1.66,2.1,0,1.07-.48,2.14-1.66,2.14s-1.67-1-1.67-2.09m4.62-5.32h-1.34v3.06a2.36,2.36,0,0,0-2-.91c-1.29,0-2.58.91-2.58,3.06,0,1.83.91,3.22,2.8,3.22a1.89,1.89,0,0,0,1.82-1h.06v.8h1.23Zm2.8,8.27h1.5l2.14-6h-1.39L105.4,23l-1.5-4.57h-1.45Zm8-2c0,.86-.92,1.18-1.5,1.18s-1.24-.21-1.24-.8.54-.86,1.07-1a5.26,5.26,0,0,0,1.67-.37ZM113.84,20c0-1.29-1.24-1.72-2.42-1.72s-2.58.43-2.69,2H110c.06-.65.59-1,1.35-1,.53,0,1.23.11,1.23.81s-.86.7-1.77.85c-1.13.11-2.31.38-2.31,1.83a1.83,1.83,0,0,0,1.86,1.79h.18a3,3,0,0,0,2.1-.75c0,.59.48.75,1,.75a3.62,3.62,0,0,0,.86-.16v-.91a.86.86,0,0,1-.32.05c-.27,0-.32-.16-.32-.48Zm1.23,4.4h1.29V20.89a1.48,1.48,0,0,1,1.38-1.56h.07c.81,0,1.18.38,1.18,1.34v3.76h1.35V20.3a1.89,1.89,0,0,0-1.76-2,2.55,2.55,0,0,0-.39,0,2.19,2.19,0,0,0-1.88,1v-.86h-1.24Zm11.77-4c-.11-1.5-1.29-2.15-2.69-2.15a3.15,3.15,0,0,0-.05,6.28,2.54,2.54,0,0,0,2.73-2.35s0,0,0-.06h-1.29a1.51,1.51,0,0,1-1.45,1.4c-1.13,0-1.56-1.08-1.56-2.1,0-1.77,1-2.15,1.61-2.15a1.28,1.28,0,0,1,1.4,1.13h1.29Zm.91-2v6h1.34v-6Zm0-2.31V17.4h1.34V16.16Zm2.58,8.27h1.29V20.89A1.48,1.48,0,0,1,133,19.33h.07c.75,0,1.13.38,1.18,1.34v3.76h1.29V20.3a1.84,1.84,0,0,0-1.67-2,1.48,1.48,0,0,0-.42,0,2.16,2.16,0,0,0-1.88,1v-.86h-1.25Zm9-1c-1.13,0-1.62-1-1.62-2s.43-2.1,1.62-2.1,1.61,1,1.61,2-.43,2.1-1.61,2.1m2.89-4.94H141v.81h-.06a1.8,1.8,0,0,0-1.77-1,2.73,2.73,0,0,0-2.7,2.76,1.282,1.282,0,0,1,0,.19c0,1.72.81,3.17,2.69,3.17a1.93,1.93,0,0,0,1.77-1.07H141v.91a1.38,1.38,0,0,1-1.16,1.56,1.34,1.34,0,0,1-.4,0c-.65,0-1.29-.16-1.45-.91H136.7c.11,1.45,1.45,1.88,2.68,1.88,1.88,0,2.9-.86,2.9-2.69Z"/><path class="d" d="M71.82,10.69h1.35V4.62h0L77,10.69h1.5V2.42H77.14V8.49h-.06L73.32,2.42h-1.5Zm11.71-2c0,.86-.91,1.18-1.5,1.18-.43,0-1.23-.21-1.23-.8s.54-.86,1.13-1a5,5,0,0,0,1.61-.38Zm1.29-2.36c0-1.3-1.23-1.72-2.36-1.72-1.34,0-2.63.42-2.74,2h1.34c.06-.64.54-1,1.29-1,.54,0,1.24.1,1.24.8s-.81.7-1.77.86c-1.13.11-2.31.38-2.31,1.83a1.81,1.81,0,0,0,1.86,1.78h.18a3,3,0,0,0,2.1-.75c.11.59.48.75,1,.75a2.05,2.05,0,0,0,.81-.16V9.78a.76.76,0,0,1-.33.05c-.21,0-.32-.16-.32-.48V6.28Zm.65-.6h1V9.24c0,1,.27,1.5,1.66,1.5.27,0,.59-.05.86-.05v-1a1.94,1.94,0,0,1-.54.05c-.59,0-.64-.27-.64-.86V5.69H89v-1H87.78V2.9H86.44V4.72h-1Zm4.24-1v6h1.35v-6Zm0-2.31V3.65h1.35V2.42ZM95,9.83c-1.18,0-1.72-1.07-1.72-2.15s.54-2.1,1.72-2.1,1.72,1.08,1.72,2.1S96.21,9.83,95,9.83m0,1a2.89,2.89,0,0,0,3-2.76,2.84,2.84,0,0,0,0-.41,3,3,0,0,0-6-.19v.19a2.89,2.89,0,0,0,2.6,3.16,2.84,2.84,0,0,0,.41,0M99,10.69h1.29V7.14a1.47,1.47,0,0,1,1.39-1.55h.07c.8,0,1.18.37,1.18,1.34v3.76h1.34V6.55a1.89,1.89,0,0,0-1.75-2,1.76,1.76,0,0,0-.4,0,2.18,2.18,0,0,0-1.88,1V4.73H99Zm10.1-2c0,.86-.86,1.18-1.45,1.18s-1.23-.22-1.23-.81.53-.85,1.07-1a4.46,4.46,0,0,0,1.61-.38Zm1.35-2.37c0-1.29-1.24-1.71-2.42-1.71s-2.63.42-2.69,2h1.29c.06-.64.59-1,1.35-1,.53,0,1.23.1,1.23.8s-.86.7-1.83.86-2.25.38-2.25,1.83a1.81,1.81,0,0,0,1.86,1.78h.18a2.84,2.84,0,0,0,2-.75c.11.59.48.75,1,.75a2.27,2.27,0,0,0,.86-.16V9.78a1.13,1.13,0,0,1-.32.05c-.27,0-.32-.16-.32-.48Zm1.23-3.86v8.27H113V2.42Zm12.79,2.63c-.16-1.77-1.67-2.79-3.49-2.85-2.53,0-4,2-4,4.35s1.45,4.36,4,4.36a3.41,3.41,0,0,0,3.49-3.3V7.52H123a2.16,2.16,0,0,1-2.1,2.2c-1.77,0-2.53-1.56-2.53-3.17s.76-3.17,2.53-3.17a2,2,0,0,1,2,1.67Zm6.34,3a2.88,2.88,0,1,0-5.7-.38c0,1.88,1,3.17,2.9,3.17a2.67,2.67,0,0,0,2.74-2h-1.23a1.49,1.49,0,0,1-1.5,1,1.62,1.62,0,0,1-1.62-1.62.76.76,0,0,1,0-.15Zm-4.41-.92A1.6,1.6,0,0,1,128,5.59a1.58,1.58,0,0,1,1.5,1.55Zm5.21,3.55h1.35V7.14a1.43,1.43,0,0,1,1.31-1.55h.14c.75,0,1.13.37,1.13,1.34v3.76h1.34V6.55a1.85,1.85,0,0,0-1.67-2,2.07,2.07,0,0,0-.43,0,2.11,2.11,0,0,0-1.88,1h0V4.73h-1.24Zm5.86-5h1V9.24c.05,1,.32,1.5,1.66,1.5.32,0,.59-.06.86-.06v-1a1.65,1.65,0,0,1-.54.05c-.59,0-.64-.26-.64-.85V5.69h1.18v-1h-1.18V2.89h-1.34V4.72h-1Zm9.67,2.36a3,3,0,0,0-2.37-3.44,3.909,3.909,0,0,0-.48-.05,2.9,2.9,0,0,0-2.85,3v.17c0,1.88,1,3.17,2.9,3.17a2.62,2.62,0,0,0,2.69-2h-1.24a1.41,1.41,0,0,1-1.45,1,1.61,1.61,0,0,1-1.61-1.63V8.05Zm-4.41-.91a1.56,1.56,0,0,1,1.56-1.56,1.51,1.51,0,0,1,1.5,1.53h0Zm5.22,3.55h1.29V7.84c0-1.34.75-2,1.66-2a2,2,0,0,1,.54,0V4.56h-.49a2,2,0,0,0-1.77,1.29V4.72H147.9Z"/><line class="f" y2="40" transform="translate(201.72)"/></svg>