<?xml version="1.0" encoding="UTF-8"?>
<svg id="SVGRoot" xmlns="http://www.w3.org/2000/svg" xmlns:svg="http://www.w3.org/2000/svg" version="1.1" viewBox="0 0 104.3 104.5">
  <!-- Generator: Adobe Illustrator 29.1.0, SVG Export Plug-In . SVG Version: 2.1.0 Build 142)  -->
  <defs>
    <style>
      .st0 {
        fill: #265668;
        fill-opacity: 1;
        isolation: isolate;
        opacity: 1;
      }
    </style>
  </defs>
  <g id="layer1">
    <path id="path1059" class="st0" d="M0,85c.9-.8,4.3-1.1,7.5-.5,1.2.2,3.8.8,5.9,1.4,2.1.6,4.5,1.2,5.4,1.5l1.6.4-1.4-4.5c-2.6-8.3-3-12-1.5-14.6,1-1.7,5.4-6.1,6.8-6.7.8-.3,1-.6,1.2-1,.5-1.5,1.4-2.8,4-5.3,2.4-2.3,2.8-2.6,4-3.1,2.6-1,6.7-.4,15.4,2.1,2,.6,4,1.1,4.4,1.2l.8.2-.7-1.9c-3.3-9.7-4.2-14.8-3.1-17.6.5-1.2.9-1.7,3.3-4.2,2.2-2.2,3-3,3.9-3.4,1-.5,1.1-.6,1.6-1.8.4-1.1.8-1.5,3.6-4.3,3.6-3.6,4.1-3.8,6.9-3.8,2.7,0,6.6.8,14.7,3.1,1.7.5,3.1.9,3.2.8,0,0-.5-2.1-1.3-4.5-3.5-11-3.6-14.1-.5-17.1l1.3-1.3.9.9c.8.8.9,1.1,1.2,2.9.4,2.6.8,4.3,2.9,10.8,1.6,4.9,2.6,8.2,2.9,9.8.1.6.3.6,2,.7,1.7,0,1.9,0,1.9-.5.1-1.5-1-6.1-3.3-13.2l-1.4-4.2,4.8,4.5,4.8,4.5.2,1.5c.3,1.8.2,3.4-.3,4.8-.3.9-.6,1.3-3.6,4-1.8,1.7-3.6,3.2-4,3.4-.6.3-.8.6-1.1,1.6-.3,1.2-.4,1.2-3.7,4.3-4,3.7-4.5,4-7.9,3.9-2.5,0-6.3-.9-12.9-2.8-5.1-1.5-4.8-1.9-3,3.5,2.7,8.4,3.4,12.6,2.5,15.1-.4,1.1-.7,1.4-3.5,4.2-2.1,2-3.4,3.1-3.9,3.4-.7.3-.8.5-1.2,1.6-.4,1.2-.6,1.4-3.5,4.3-3.4,3.3-3.9,3.6-6,3.9-2.2.3-6.7-.6-14.6-2.8-3.8-1.1-4.3-1.2-4.2-.7,0,.3.7,2.4,1.5,4.7,2.5,7.7,3.3,12,2.4,14.4-.4,1-.6,1.3-3.4,3.8-2.3,2.1-3.2,2.8-3.9,3l-1,.3-.2,1.4-.2,1.4-3.1,2.9c-2.4,2.3-3.3,3-4,3.2l-.9.3-3.9-3.6c-4.4-4.1-4.5-3.8.6-2.5,3.1.7,6.1,1.1,6.2.7,0-.1,0-1.1-.3-2.2l-.3-1.9-1.9-.5c-1.1-.3-4.2-1.1-7.1-1.9-2.8-.8-5.9-1.6-6.8-1.9l-1.7-.4-2.7-2.6c-1.6-1.5-2.6-2.7-2.5-2.7h0ZM30.1,89.9l1.9.2v-1.3c-.3-1.7-1.4-5.9-3.3-11.7-.9-2.7-1.9-6.1-2.3-7.5-.8-2.9-.9-3-3.2-2.9-1.4,0-1.4,0-1,2.9.4,2.5,1.2,5.4,3.3,12.1,1,3.1,1.9,6.1,2,6.7.1.6.3,1.1.4,1.2,0,0,1,.3,2.1.4h0ZM41.5,64.2c8.8,2.5,11.9,3.2,14,3.1,1.1,0,1.1-.2.8-2.6l-.2-1.5-2.8-.7c-1.5-.4-5.3-1.4-8.4-2.3-3.1-.9-6.8-1.9-8.2-2.2-2.6-.6-5.7-.8-5.9-.5,0,0,0,1,0,2.1l.2,1.9,2.8.7c1.5.4,5,1.3,7.6,2h0ZM63.5,58h1.7c0,0,0-1,0-1,0-1.5-.7-5.1-1.9-9-.6-1.8-1.6-5-2.2-7.1-.7-2.1-1.4-4.6-1.6-5.5-.5-1.8-.5-1.8-2.9-1.9h-1.2s.1,1.7.1,1.7c.2,2.6.7,4.7,3.1,12.5,1.2,3.9,2.3,7.6,2.5,8.4.2.8.4,1.5.5,1.6.1.1,1,.2,1.9.3h0ZM65.7,28.8c1.3.2,5,1.2,12.6,3.3,5.3,1.5,8.8,2.2,10.7,2.1h1.3s-.1-1.5-.1-1.5c-.2-2.6-.1-2.5-3.3-3.3-1.6-.4-5.4-1.4-8.5-2.3-6.4-1.8-10.8-2.8-12.8-2.9h-1.4s.1,2,.1,2c0,1.1.2,2.1.2,2.1,0,0,.6.2,1.3.3h0Z"/>
  </g>
</svg>