<?xml version="1.0" encoding="UTF-8"?>
<svg id="Layer_1" data-name="Layer 1" xmlns="http://www.w3.org/2000/svg" viewBox="0 0 2916.37 771.6">
  <defs>
    <style>
      .cls-1, .cls-2, .cls-3 {
        fill: #fff;
      }

      .cls-1, .cls-3 {
        font-size: 366.42px;
      }

      .cls-4, .cls-5, .cls-6 {
        letter-spacing: -.04em;
      }

      .cls-7 {
        letter-spacing: -.05em;
      }

      .cls-8 {
        letter-spacing: -.04em;
      }

      .cls-8, .cls-3, .cls-9, .cls-10, .cls-5, .cls-11, .cls-12 {
        font-family: AcuminConcept-Bold, 'Acumin Variable Concept';
        font-variation-settings: 'wght' 700, 'wdth' 100, 'slnt' 0;
        font-weight: 700;
      }

      .cls-9 {
        letter-spacing: -.04em;
      }

      .cls-13, .cls-10 {
        letter-spacing: -.04em;
      }

      .cls-14 {
        letter-spacing: -.05em;
      }

      .cls-15 {
        letter-spacing: -.04em;
      }

      .cls-11 {
        letter-spacing: -.05em;
      }

      .cls-16 {
        letter-spacing: -.04em;
      }

      .cls-12 {
        letter-spacing: -.04em;
      }

      .cls-6 {
        font-family: MyriadVariableConcept-Roman, 'Myriad Variable Concept';
        font-variation-settings: 'wght' 300, 'wdth' 70;
      }

      .cls-17 {
        letter-spacing: -.04em;
      }

      .cls-18 {
        letter-spacing: -.02em;
      }
    </style>
  </defs>
  <path class="cls-2" d="m422,655.23l-53.92,93.4h-16.19l53.92-93.4h16.19m17.32-10h-39.28l-65.47,113.4h39.28l65.47-113.4h0Z"/>
  <path class="cls-2" d="m353.82,655.23l-53.92,93.4h-16.19s53.92-93.4,53.92-93.4h16.19m17.32-10h-39.28l-65.47,113.4h39.28s65.47-113.4,65.47-113.4h0Z"/>
  <path class="cls-2" d="m473.85,655.58l16.19.05-54.19,93.24-16.19-.05,54.19-93.24m-5.74-10.02l-65.79,113.21,39.28.11,65.79-113.21-39.28-.11h0Z"/>
  <path class="cls-2" d="m198.19,758.19l.27-95.7c.03-9.77,7.97-17.68,17.75-17.65l87.05.25-65.79,113.21-39.28-.11Z"/>
  <path class="cls-2" d="m541.89,655.77l15.81.04c2.06,0,3.99.81,5.44,2.27,1.45,1.46,2.25,3.39,2.24,5.45l-.24,85.7-77.43-.22,54.19-93.24m-5.74-10.02l-65.79,113.21,104.75.3.27-95.7c.03-9.77-7.87-17.72-17.65-17.75l-21.58-.06h0Z"/>
  <path class="cls-2" d="m573.47,423.72h137.21c10.08,11.24.12,21.96.12,21.96h-137.33c-14.25-10.72,0-21.96,0-21.96Z"/>
  <path class="cls-2" d="m552.96,313.71l198.68-117.53c20.31,1.04,11.36,18.79,11.36,18.79l-198.86,117.64c-26.1,2.98-11.18-18.9-11.18-18.9Z"/>
  <path class="cls-2" d="m462.72,245.25l66.52-120c14.72-3.36,19.26,10.54,19.26,10.54l-66.58,120.11c-16.28,7.27-19.2-10.65-19.2-10.65Z"/>
  <path class="cls-2" d="m321.26,312.85c-35.82.02-35.87,27.68-35.87,27.85l-50.05,294.02h151.61v.1h.21v-321.97h-65.89Zm-33.58,269.95c-6.37,0-11.22-5.71-10.19-11.99l32.35-198.36c.54-3.3,2.23-6.15,4.62-8.19,2.4-2.04,5.49-3.25,8.83-3.25l-35.6,221.79Z"/>
  <path class="cls-2" d="m397.15,322.86l55.68.08c10.92,0,18.53,2.95,22.61,8.76,2.89,4.11,3.23,8.52,3.26,9.14l-.02.64.17.99,48.06,282.33h-129.76v-301.95m-10-10.02v321.97h151.61l-50.05-294.01s.05-27.84-35.88-27.86l-65.69-.1h0Z"/>
  <path class="cls-2" d="m191.49,424.01H54.28c-10.08,11.24-.12,21.96-.12,21.96h137.33c14.25-10.72,0-21.96,0-21.96Z"/>
  <path class="cls-2" d="m212.01,314L13.33,196.47c-20.31,1.04-11.36,18.79-11.36,18.79l198.86,117.64c26.1,2.98,11.18-18.9,11.18-18.9Z"/>
  <path class="cls-2" d="m302.24,245.54l-66.52-120c-14.72-3.36-19.26,10.54-19.26,10.54l66.58,120.11c16.28,7.27,19.2-10.65,19.2-10.65Z"/>
  <path class="cls-2" d="m376.45,238.43V7.59c11.24-16.95,21.96-.21,21.96-.21v231.05c-10.72,23.98-21.96,0-21.96,0Z"/>
  <text class="cls-1" transform="translate(829.98 334.22)"><tspan class="cls-5" x="0" y="0">Ra</tspan><tspan class="cls-11" x="418.08" y="0">re</tspan><tspan class="cls-10" x="729.91" y="0"> </tspan><tspan class="cls-9" x="803.93" y="0">D</tspan><tspan class="cls-8" x="1059.32" y="0">i</tspan><tspan class="cls-12" x="1142.5" y="0">s</tspan><tspan class="cls-10" x="1318.37" y="0">e</tspan><tspan class="cls-11" x="1507.08" y="0">a</tspan><tspan class="cls-12" x="1693.96" y="0">s</tspan><tspan class="cls-10" x="1869.84" y="0">e</tspan><tspan class="cls-6" x="2058.54" y="0"> </tspan></text>
  <text class="cls-3" transform="translate(813.77 675.59)"><tspan class="cls-15" x="0" y="0">Al</tspan><tspan class="cls-16" x="322.44" y="0">e</tspan><tspan class="cls-18" x="512.25" y="0">r</tspan><tspan class="cls-4" x="649.28" y="0">t </tspan><tspan class="cls-14" x="841.65" y="0">S</tspan><tspan class="cls-17" x="1057.47" y="0">y</tspan><tspan class="cls-14" x="1232.62" y="0">s</tspan><tspan class="cls-7" x="1404.84" y="0">t</tspan><tspan class="cls-16" x="1519.53" y="0">e</tspan><tspan class="cls-13" x="1709.33" y="0">m</tspan></text>
</svg>