<svg id="Layer_1" data-name="Layer 1" xmlns="http://www.w3.org/2000/svg" xmlns:xlink="http://www.w3.org/1999/xlink" viewBox="0 0 780 780"><defs><style>.cls-1{fill:#fff;}.cls-2{fill:url(#linear-gradient);}.cls-3{fill:#92278f;}.cls-4{fill:#6e4d8f;}.cls-5{fill:url(#linear-gradient-2);}.cls-6{fill:url(#linear-gradient-3);}.cls-7{fill:url(#linear-gradient-4);}.cls-8{fill:url(#linear-gradient-5);}</style><linearGradient id="linear-gradient" x1="342.97" y1="73.71" x2="447.72" y2="74.61" gradientTransform="matrix(1, 0, 0, -1, 0, 780.29)" gradientUnits="userSpaceOnUse"><stop offset="0" stop-color="#92278f"/><stop offset="1" stop-color="#6e4d8f"/></linearGradient><linearGradient id="linear-gradient-2" x1="471.12" y1="584.91" x2="556.9" y2="584.91" xlink:href="#linear-gradient"/><linearGradient id="linear-gradient-3" x1="243.73" y1="302.26" x2="547.16" y2="302.26" gradientTransform="matrix(1, 0, 0, -1, 0, 780.29)" gradientUnits="userSpaceOnUse"><stop offset="0.3" stop-color="#92278f"/><stop offset="1" stop-color="#6e4d8f"/></linearGradient><linearGradient id="linear-gradient-4" x1="224.86" y1="584.62" x2="310.64" y2="584.62" xlink:href="#linear-gradient"/><linearGradient id="linear-gradient-5" x1="384.85" y1="651.55" x2="406.81" y2="651.55" xlink:href="#linear-gradient"/></defs><rect class="cls-1" width="780" height="780" rx="25"/><polygon class="cls-2" points="342.96 762.83 408.43 649.43 447.72 649.43 382.25 762.83 342.96 762.83"/><polygon class="cls-3" points="274.79 762.83 340.26 649.43 379.54 649.43 314.08 762.83 274.79 762.83"/><polygon class="cls-4" points="410.71 762.97 476.5 649.76 515.78 649.87 449.99 763.08 410.71 762.97"/><path class="cls-3" d="M206.59,762.39l.27-95.7A17.7,17.7,0,0,1,224.61,649l87.05.25L245.87,762.5Z"/><path class="cls-4" d="M478.75,763.16,544.54,650l21.58.06a17.7,17.7,0,0,1,17.65,17.75l-.27,95.7-104.75-.3Z"/><path class="cls-4" d="M581.87,427.92H719.08c10.08,11.24.12,22,.12,22H581.87C567.62,439.16,581.87,427.92,581.87,427.92Z"/><path class="cls-4" d="M561.36,317.91,760,200.38c20.31,1,11.36,18.79,11.36,18.79L572.54,336.81C546.44,339.79,561.36,317.91,561.36,317.91Z"/><path class="cls-5" d="M471.12,249.45l66.52-120C552.36,126.09,556.9,140,556.9,140L490.32,260.1c-16.28,7.27-19.2-10.65-19.2-10.65Z"/><path class="cls-6" d="M497.12,345c0-.15-.05-27.84-35.88-27.86L391.5,317v.1H329.66c-35.82,0-35.88,27.69-35.88,27.86l-50,294H547.16Zm-201,242.09a10.33,10.33,0,0,1-10.2-12l32.35-198.35a13.63,13.63,0,0,1,13.45-11.44l-35.6,221.78Z"/><path class="cls-3" d="M199.89,428.21H62.68c-10.08,11.24-.12,22-.12,22H199.89C214.14,439.45,199.89,428.21,199.89,428.21Z"/><path class="cls-3" d="M220.41,318.2,21.73,200.67c-20.31,1-11.36,18.79-11.36,18.79L209.23,337.1c26.1,3,11.18-18.9,11.18-18.9Z"/><path class="cls-7" d="M310.64,249.74l-66.52-120c-14.72-3.36-19.26,10.54-19.26,10.54l66.58,120.11c16.28,7.27,19.2-10.65,19.2-10.65Z"/><path class="cls-8" d="M384.85,242.63V11.79c11.24-16.95,22-.21,22-.21V242.63c-10.72,24-22,0-22,0Z"/></svg>