<svg viewBox="-576,-193.5,1152,387" xmlns="http://www.w3.org/2000/svg" xmlns:xlink="http://www.w3.org/1999/xlink"><path fill="lightgray" stroke="gray" d="M0,-183.5A183.5,183.5,0,0,1,174.519,-56.705L130.889,-42.528A137.625,137.625,0,0,0,0,-137.625Z"/><path fill="lightgray" stroke="gray" d="M174.519,-56.705A183.5,183.5,0,0,1,107.859,148.455L80.894,111.341A137.625,137.625,0,0,0,130.889,-42.528Z"/><path fill="lightgray" stroke="gray" d="M107.859,148.455A183.5,183.5,0,0,1,-107.859,148.455L-80.894,111.341A137.625,137.625,0,0,0,80.894,111.341Z"/><path fill="lightgray" stroke="gray" d="M-107.859,148.455A183.5,183.5,0,0,1,-174.519,-56.705L-130.889,-42.528A137.625,137.625,0,0,0,-80.894,111.341Z"/><path fill="lightgray" stroke="gray" d="M-174.519,-56.705A183.5,183.5,0,0,1,0,-183.5L0,-137.625A137.625,137.625,0,0,0,-130.889,-42.528Z"/></svg>