<svg width="387" height="347" viewBox="0,0,387,347" style="max-width: 100%; height: auto;" xmlns="http://www.w3.org/2000/svg" xmlns:xlink="http://www.w3.org/1999/xlink"><g fill="lightgray"><rect x="347.11494252873564" y="132.4677216186427" height="184.5322783813573" width="11.965517241379311"/><rect x="121.09961685823757" y="283.28845851047083" height="33.71154148952917" width="11.965517241379311"/><rect x="227.45977011494256" y="254.1410801448591" height="62.8589198551409" width="11.965517241379311"/><rect x="254.0498084291188" y="220.90403086128168" height="96.09596913871832" width="11.965517241379311"/><rect x="373.70498084291194" y="30" height="287" width="11.965517241379311"/><rect x="174.27969348659005" y="265.30294441820183" height="51.69705558179817" width="11.965517241379311"/><rect x="160.98467432950193" y="271.4713430955755" height="45.52865690442451" width="11.965517241379311"/><rect x="280.63984674329504" y="179.30688080617227" height="137.69311919382773" width="11.965517241379311"/><rect x="320.5249042145594" y="159.60415682569672" height="157.39584317430328" width="11.965517241379311"/><rect x="81.21455938697319" y="313.54298535663673" height="3.457014643363266" width="11.965517241379311"/><rect x="94.50957854406131" y="299.55676271453314" height="17.443237285466864" width="11.965517241379311"/><rect x="240.75478927203068" y="226.05566052590143" height="90.94433947409857" width="11.965517241379311"/><rect x="200.86973180076632" y="262.63675011809164" height="54.36324988190836" width="11.965517241379311"/><rect x="307.2298850574713" y="164.50724295386556" height="152.49275704613444" width="11.965517241379311"/><rect x="333.8199233716475" y="147.38033380569988" height="169.61966619430012" width="11.965517241379311"/><rect x="134.3946360153257" y="273.41450165328297" height="43.58549834671703" width="11.965517241379311"/><rect x="54.62452107279694" y="314.85348763974173" height="2.1465123602582707" width="11.965517241379311"/><rect x="267.3448275862069" y="181.72453156983153" height="135.27546843016847" width="11.965517241379311"/><rect x="293.93486590038316" y="174.04227680680202" height="142.95772319319798" width="11.965517241379311"/><rect x="360.4099616858238" y="112.38088490001572" height="204.6191150999843" width="11.965517241379311"/><rect x="214.16475095785444" y="254.68335695166112" height="62.316643048338875" width="11.965517241379311"/><rect x="107.80459770114943" y="294.9022201228153" height="22.097779877184678" width="11.965517241379311"/><rect x="187.57471264367817" y="263.67611399779565" height="53.32388600220435" width="11.965517241379311"/><rect x="67.91954022988506" y="313.610769957487" height="3.38923004251302" width="11.965517241379311"/><rect x="147.6896551724138" y="272.39773264052906" height="44.60226735947094" width="11.965517241379311"/><rect x="41.32950191570882" y="315.3279798456936" height="1.6720201543063808" width="11.965517241379311"/></g></svg>