<svg width="387" height="347" viewBox="0,0,387,347" style="max-width: 100%; height: auto;" xmlns="http://www.w3.org/2000/svg" xmlns:xlink="http://www.w3.org/1999/xlink"><g fill="lightgray"><rect x="41" width="11.57692307692308" y="310.6808510638298" height="6.319148936170222"/><rect x="53.57692307692308" width="11.57692307692308" y="241.54192740926158" height="75.45807259073842"/><rect x="66.15384615384616" width="11.576923076923066" y="109.95494367959948" height="207.04505632040053"/><rect x="78.73076923076923" width="11.576923076923094" y="20" height="297"/><rect x="91.30769230769232" width="11.576923076923066" y="54.5694618272841" height="262.4305381727159"/><rect x="103.88461538461539" width="11.576923076923066" y="161.6232790988736" height="155.3767209011264"/><rect x="116.46153846153845" width="11.576923076923094" y="232.24906132665836" height="84.75093867334164"/><rect x="129.03846153846155" width="11.576923076923094" y="275.3679599499374" height="41.632040050062585"/><rect x="141.61538461538464" width="11.576923076923038" y="297.6708385481852" height="19.329161451814798"/><rect x="154.19230769230768" width="11.576923076923094" y="308.450563204005" height="8.549436795995007"/><rect x="166.76923076923077" width="11.576923076923066" y="310.30913642052565" height="6.690863579474353"/><rect x="179.34615384615384" width="11.576923076923094" y="311.79599499374217" height="5.20400500625783"/><rect x="191.92307692307693" width="11.576923076923066" y="309.5657071339174" height="7.434292866082615"/><rect x="204.5" width="11.576923076923066" y="311.42428035043804" height="5.575719649561961"/><rect x="217.07692307692307" width="11.576923076923066" y="312.91113892365456" height="4.088861076345438"/><rect x="229.65384615384613" width="11.576923076923123" y="314.02628285356695" height="2.973717146433046"/><rect x="242.23076923076925" width="11.576923076923038" y="315.14142678347935" height="1.8585732165206537"/><rect x="254.8076923076923" width="11.576923076923066" y="315.14142678347935" height="1.8585732165206537"/><rect x="267.38461538461536" width="11.576923076923094" y="316.25657071339174" height="0.7434292866082615"/><rect x="279.96153846153845" width="11.576923076923094" y="316.25657071339174" height="0.7434292866082615"/><rect x="292.53846153846155" width="11.576923076923038" y="316.62828535669587" height="0.37171464330413073"/><rect x="305.1153846153846" width="11.576923076923094" y="317" height="0"/><rect x="317.6923076923077" width="11.576923076923094" y="316.62828535669587" height="0.37171464330413073"/><rect x="330.2692307692308" width="11.576923076923094" y="316.62828535669587" height="0.37171464330413073"/><rect x="342.84615384615387" width="11.576923076923094" y="317" height="0"/><rect x="355.42307692307696" width="11.576923076923038" y="316.62828535669587" height="0.37171464330413073"/></g></svg>